REM DIRINDEX 1\2\5,1\2\6,1\2\7,1\2\8,1\3\9,1\3\10,1\3\11,1\4\12,1\4\13,1\4\14,1\4\15,1\4\16
REM DIRNAME folder01,folder02,folder03,folder04,folder05,folder06,folder07,folder08,folder09,folder10,folder11,folder12,folder13,folder14,folder15,folder16
TITLE ""
FILE "1200_sec05_1682_1692.mp3" MP3
  TRACK 01 AUDIO
    TITLE "0:"
    INDEX 01 00:00:00
  TRACK 02 AUDIO
    TITLE "12:cjc034_10480"
    INDEX 01 00:00:17
  TRACK 03 AUDIO
    TITLE "0:"
    INDEX 01 00:01:38
  TRACK 04 AUDIO
    TITLE "13:cjc034_10481"
    INDEX 01 00:01:69
  TRACK 05 AUDIO
    TITLE "0:"
    INDEX 01 00:04:52
  TRACK 06 AUDIO
    TITLE "14:cjc034_10482"
    INDEX 01 00:05:09
  TRACK 07 AUDIO
    TITLE "0:"
    INDEX 01 00:06:28
  TRACK 08 AUDIO
    TITLE "15:cjc034_10483"
    INDEX 01 00:06:63
  TRACK 09 AUDIO
    TITLE "0:"
    INDEX 01 00:10:39
  TRACK 10 AUDIO
    TITLE "12:cjc034_10484"
    INDEX 01 00:11:72
  TRACK 11 AUDIO
    TITLE "0:"
    INDEX 01 00:15:40
  TRACK 12 AUDIO
    TITLE "13:cjc034_10485"
    INDEX 01 00:15:72
  TRACK 13 AUDIO
    TITLE "0:"
    INDEX 01 00:19:11
  TRACK 14 AUDIO
    TITLE "14:cjc034_10486"
    INDEX 01 00:19:46
  TRACK 15 AUDIO
    TITLE "0:"
    INDEX 01 00:23:14
  TRACK 16 AUDIO
    TITLE "15:cjc034_10487"
    INDEX 01 00:23:44
  TRACK 17 AUDIO
    TITLE "0:"
    INDEX 01 00:28:19
  TRACK 18 AUDIO
    TITLE "12:cjc034_10488"
    INDEX 01 00:29:52
  TRACK 19 AUDIO
    TITLE "0:"
    INDEX 01 00:31:04
  TRACK 20 AUDIO
    TITLE "13:cjc034_10489"
    INDEX 01 00:31:37
  TRACK 21 AUDIO
    TITLE "0:"
    INDEX 01 00:34:02
  TRACK 22 AUDIO
    TITLE "14:cjc034_10490"
    INDEX 01 00:34:32
  TRACK 23 AUDIO
    TITLE "0:"
    INDEX 01 00:35:57
  TRACK 24 AUDIO
    TITLE "15:cjc034_10491"
    INDEX 01 00:36:17
  TRACK 25 AUDIO
    TITLE "0:"
    INDEX 01 00:41:49
  TRACK 26 AUDIO
    TITLE "12:cjc034_10492"
    INDEX 01 00:43:07
  TRACK 27 AUDIO
    TITLE "0:"
    INDEX 01 00:44:36
  TRACK 28 AUDIO
    TITLE "13:cjc034_10493"
    INDEX 01 00:44:67
  TRACK 29 AUDIO
    TITLE "0:"
    INDEX 01 00:47:11
  TRACK 30 AUDIO
    TITLE "14:cjc034_10494"
    INDEX 01 00:47:44
  TRACK 31 AUDIO
    TITLE "0:"
    INDEX 01 00:48:73
  TRACK 32 AUDIO
    TITLE "15:cjc034_10495"
    INDEX 01 00:49:33
  TRACK 33 AUDIO
    TITLE "0:"
    INDEX 01 00:53:35
  TRACK 34 AUDIO
    TITLE "12:cjc034_10496"
    INDEX 01 00:54:66
  TRACK 35 AUDIO
    TITLE "0:"
    INDEX 01 00:56:18
  TRACK 36 AUDIO
    TITLE "13:cjc034_10497"
    INDEX 01 00:56:49
  TRACK 37 AUDIO
    TITLE "0:"
    INDEX 01 00:58:09
  TRACK 38 AUDIO
    TITLE "14:cjc034_10498"
    INDEX 01 00:58:38
  TRACK 39 AUDIO
    TITLE "0:"
    INDEX 01 00:59:67
  TRACK 40 AUDIO
    TITLE "15:cjc034_10499"
    INDEX 01 01:00:23
  TRACK 41 AUDIO
    TITLE "0:"
    INDEX 01 01:04:66
  TRACK 42 AUDIO
    TITLE "12:cjc034_10500"
    INDEX 01 01:06:24
  TRACK 43 AUDIO
    TITLE "0:"
    INDEX 01 01:07:68
  TRACK 44 AUDIO
    TITLE "13:cjc034_10501"
    INDEX 01 01:08:29
  TRACK 45 AUDIO
    TITLE "0:"
    INDEX 01 01:11:13
  TRACK 46 AUDIO
    TITLE "14:cjc034_10502"
    INDEX 01 01:11:45
  TRACK 47 AUDIO
    TITLE "0:"
    INDEX 01 01:13:14
  TRACK 48 AUDIO
    TITLE "15:cjc034_10503"
    INDEX 01 01:13:49
  TRACK 49 AUDIO
    TITLE "0:"
    INDEX 01 01:18:33
  TRACK 50 AUDIO
    TITLE "12:cjc034_10504"
    INDEX 01 01:19:66
  TRACK 51 AUDIO
    TITLE "0:"
    INDEX 01 01:21:29
  TRACK 52 AUDIO
    TITLE "13:cjc034_10505"
    INDEX 01 01:21:63
  TRACK 53 AUDIO
    TITLE "0:"
    INDEX 01 01:25:43
  TRACK 54 AUDIO
    TITLE "14:cjc034_10506"
    INDEX 01 01:26:01
  TRACK 55 AUDIO
    TITLE "0:"
    INDEX 01 01:27:40
  TRACK 56 AUDIO
    TITLE "15:cjc034_10507"
    INDEX 01 01:27:73
  TRACK 57 AUDIO
    TITLE "0:"
    INDEX 01 01:32:29
  TRACK 58 AUDIO
    TITLE "12:cjc034_10508"
    INDEX 01 01:33:64
  TRACK 59 AUDIO
    TITLE "0:"
    INDEX 01 01:35:16
  TRACK 60 AUDIO
    TITLE "13:cjc034_10509"
    INDEX 01 01:35:47
  TRACK 61 AUDIO
    TITLE "0:"
    INDEX 01 01:37:38
  TRACK 62 AUDIO
    TITLE "14:cjc034_10510"
    INDEX 01 01:37:71
  TRACK 63 AUDIO
    TITLE "0:"
    INDEX 01 01:39:23
  TRACK 64 AUDIO
    TITLE "15:cjc034_10511"
    INDEX 01 01:39:57
  TRACK 65 AUDIO
    TITLE "0:"
    INDEX 01 01:43:03
  TRACK 66 AUDIO
    TITLE "12:cjc034_10512"
    INDEX 01 01:44:38
  TRACK 67 AUDIO
    TITLE "0:"
    INDEX 01 01:46:02
  TRACK 68 AUDIO
    TITLE "13:cjc034_10513"
    INDEX 01 01:46:33
  TRACK 69 AUDIO
    TITLE "0:"
    INDEX 01 01:49:28
  TRACK 70 AUDIO
    TITLE "14:cjc034_10514"
    INDEX 01 01:49:61
  TRACK 71 AUDIO
    TITLE "0:"
    INDEX 01 01:51:25
  TRACK 72 AUDIO
    TITLE "15:cjc034_10515"
    INDEX 01 01:51:56
  TRACK 73 AUDIO
    TITLE "0:"
    INDEX 01 01:55:46
  TRACK 74 AUDIO
    TITLE "12:cjc034_10516"
    INDEX 01 01:57:02
  TRACK 75 AUDIO
    TITLE "0:"
    INDEX 01 02:02:13
  TRACK 76 AUDIO
    TITLE "13:cjc034_10517"
    INDEX 01 02:02:46
  TRACK 77 AUDIO
    TITLE "0:"
    INDEX 01 02:04:02
  TRACK 78 AUDIO
    TITLE "14:cjc034_10518"
    INDEX 01 02:04:35
  TRACK 79 AUDIO
    TITLE "0:"
    INDEX 01 02:09:48
  TRACK 80 AUDIO
    TITLE "15:cjc034_10519"
    INDEX 01 02:10:04
  TRACK 81 AUDIO
    TITLE "0:"
    INDEX 01 02:13:59
  TRACK 82 AUDIO
    TITLE "12:cjc034_10520"
    INDEX 01 02:15:17
  TRACK 83 AUDIO
    TITLE "0:"
    INDEX 01 02:16:56
  TRACK 84 AUDIO
    TITLE "13:cjc034_10521"
    INDEX 01 02:17:12
  TRACK 85 AUDIO
    TITLE "0:"
    INDEX 01 02:22:19
  TRACK 86 AUDIO
    TITLE "14:cjc034_10522"
    INDEX 01 02:22:51
  TRACK 87 AUDIO
    TITLE "0:"
    INDEX 01 02:24:14
  TRACK 88 AUDIO
    TITLE "15:cjc034_10523"
    INDEX 01 02:24:46
  TRACK 89 AUDIO
    TITLE "0:"
    INDEX 01 02:29:02
